# AST/ASF file generated using VICON BodyLanguage
# -----------------------------------------------
:version 1.10
:name VICON
:units
  mass 1.0
  length 0.45
  angle deg
:documentation
   .ast/.asf automatically generated from VICON data using
   VICON BodyBuilder and BodyLanguage model FoxedUp or BRILLIANT.MOD
:root
   order TX TY TZ RX RY RZ
   axis XYZ
   position 0 0 0  
   orientation 0 0 0 
:bonedata
  begin
     id 1 
     name lhipjoint
     direction 0.521689 -0.742065 0.420928 
     length 2.47002 
     axis 0 0 0  XYZ
  end
  begin
     id 2 
     name lfemur
     direction 0.34202 -0.939693 0  
     length 7.24654  
     axis 0 0 20  XYZ
    dof rx ry rz
    limits (-160.0 20.0)
           (-70.0 70.0)
           (-60.0 70.0)
  end
  begin
     id 3 
     name ltibia
     direction 0.34202 -0.939693 0   
     length 8.04849   
     axis 0 0 20   XYZ
    dof rx
    limits (-10.0 170.0)
  end
  begin
     id 4 
     name lfoot
     direction 0.0745411 -0.2048 0.975961   
     length 1.72367   
     axis -90 7.62852e-016 20   XYZ
    dof rx rz
    limits (-45.0 90.0)
           (-70.0 20.0)
  end
  begin
     id 5 
     name ltoes
     direction 1.53556e-011 -4.21901e-011 1   
     length 0.87311   
     axis -90 7.62852e-016 20   XYZ
    dof rx
    limits (-90.0 20.0)
  end
  begin
     id 6 
     name rhipjoint
     direction -0.52849 -0.738415 0.418857   
     length 2.48223  
     axis 0 0 0  XYZ 
  end
  begin
     id 7 
     name rfemur
     direction -0.34202 -0.939693 0   
     length 7.15571   
     axis 0 0 -20   XYZ
    dof rx ry rz
    limits (-160.0 20.0)
           (-70.0 70.0)
           (-70.0 60.0)
  end
  begin
     id 8 
     name rtibia
     direction -0.34202 -0.939693 0   
     length 7.81659   
     axis 0 0 -20   XYZ
    dof rx
    limits (-10.0 170.0)
 end
 begin
     id 9 
     name rfoot
     direction -0.0917348 -0.252039 0.963359   
     length 1.84382  
     axis -90 -7.62852e-016 -20   XYZ
    dof rx rz
    limits (-45.0 90.0)
           (-20.0 70.0)
  end
  begin
     id 10 
     name rtoes
     direction -1.53551e-011 -4.21879e-011 1   
     length 0.927771   
     axis -90 -7.62852e-016 -20   XYZ
    dof rx
    limits (-90.0 20.0)
  end
  begin
     id 11 
     name lowerback
     direction 0.00583058 0.999822 0.0179296   
     length 2.1429   
     axis 0 0 0   XYZ
    dof rx ry rz
    limits (-20.0 45.0)
           (-30.0 30.0)
           (-30.0 30.0)
  end
  begin
     id 12 
     name upperback
     direction -0.0137999 0.999752 -0.0175071   
     length 2.14252   
     axis 0 0 0   XYZ
    dof rx ry rz
    limits (-20.0 45.0)
           (-30.0 30.0)
           (-30.0 30.0)
  end
  begin
     id 13 
     name thorax
     direction -0.0158036 0.99955 -0.0254909   
     length 2.1383   
     axis 0 0 0   XYZ
    dof rx ry rz
    limits (-20.0 45.0)
           (-30.0 30.0)
           (-30.0 30.0)
  end
  begin
     id 14 
     name lowerneck
     direction -0.0101179 0.999403 -0.0330262   
     length 1.65808   
     axis 0 0 0   XYZ
    dof rx ry rz
    limits (-20.0 45.0)
           (-30.0 30.0)
           (-30.0 30.0)
  end
  begin
     id 15 
     name upperneck
     direction 0.0497734 0.995978 -0.074501   
     length 1.5897   
     axis 0 0 0   XYZ
    dof rx ry rz
    limits (-20.0 45.0)
           (-30.0 30.0)
           (-30.0 30.0)
  end
  begin
     id 16
     name head
     direction 0.0189524 0.999519 -0.0245438  
     length 1.74024  
     axis 0 0 0   XYZ
    dof rx ry rz
    limits (-20.0 45.0)
           (-30.0 30.0)
           (-30.0 30.0)
  end
  begin
     id 17 
     name lclavicle
     direction 0.945604 0.324422 0.0241537  
     length 3.59089  
     axis 0 0 0   XYZ
    dof ry rz
    limits (-20.0 10.0)
           (0.0 20.0)
  end
  begin
     id 18 
     name lhumerus
     direction 1 -4.48964e-011 -2.63524e-027   
     length 5.2391   
     axis 180 -30 -90   XYZ
    dof rx ry rz
    limits (-60.0 90.0)
           (-90.0 90.0)
           (-90.0 90.0)
  end
  begin
     id 19
     name lradius
     direction 1 -4.48969e-011 3.86978e-028   
     length 3.31467   
     axis 180 -30 -90   XYZ
    dof rx
    limits (-10.0 170.0)
  end
  begin
     id 20
     name lwrist
     direction 1 -4.48963e-011 7.20928e-028   
     length 1.65734   
     axis -5.52449e-016 90 90   XYZ
    dof ry
    limits (-180.0 0.0)
 end
  begin
     id 21 
     name lhand
     direction 1 -4.48964e-011 1.44186e-027   
     length 0.9659   
     axis -9.20027e-016 90 90   XYZ
    dof rx rz
    limits (-90.0 90.0)
           (-45.0 45.0)
  end
  begin
     id 22 
     name lfingers
     direction 1 -4.48965e-011 2.88371e-027   
     length 0.778733   
     axis -1.84005e-015 90 90   XYZ
    dof rx
    limits (0.0 90.0)
  end
  begin
     id 23
     name lthumb
     direction 0.707107 -6.34931e-011 0.707107   
     length 1.11811   
     axis -90 45 2.85299e-015   XYZ
    dof rx rz
    limits (-45.0 45.0)
           (-45.0 45.0)
  end
  begin
     id 24 
     name rclavicle
     direction -0.923762 0.370785 0.0958234   
     length 3.54196  
     axis 0 0 0   XYZ 
    dof ry rz
    limits (-10.0 20.0)
           (-20.0 0.0)
  end
  begin
     id 25 
     name rhumerus
     direction -1 -4.48966e-011 1.18702e-017  
     length 5.30252   
     axis 180 30 90   XYZ
    dof rx ry rz
    limits (-90.0 60.0)
           (-90.0 90.0)
           (-90.0 90.0)
  end
  begin
     id 26 
     name rradius
     direction -1 -4.48966e-011 4.46736e-027   
     length 3.67875   
     axis 180 30 90   XYZ
    dof rx
    limits (-10.0 170.0)
  end
  begin
     id 27 
     name rwrist
     direction -1 -4.48966e-011 7.20928e-028   
     length 1.83937   
     axis -5.52449e-016 -90 -90   XYZ
    dof ry
    limits (-180.0 0.0)
  end
  begin
     id 28
     name rhand
     direction -1 -4.48973e-011 1.44186e-027   
     length 0.594811   
     axis -9.20027e-016 -90 -90   XYZ
    dof rx rz
    limits (-90.0 90.0)
           (-45.0 45.0)
  end
  begin
     id 29
     name rfingers
     direction -1 -4.48963e-011 2.88371e-027   
     length 0.479552   
     axis -1.84005e-015 -90 -90   XYZ
    dof rx
    limits (0.0 90.0)
  end
  begin
     id 30
     name rthumb
     direction -0.707107 -6.34932e-011 0.707107   
     length 0.688544   
     axis -90 -45 -2.85299e-015   XYZ
    dof rx rz
    limits (-45.0 45.0)
           (-45.0 45.0)
  end
:hierarchy
  begin
    root lhipjoint rhipjoint lowerback
    lhipjoint lfemur
    lfemur ltibia
    ltibia lfoot
    lfoot ltoes
    rhipjoint rfemur
    rfemur rtibia
    rtibia rfoot
    rfoot rtoes
    lowerback upperback
    upperback thorax
    thorax lowerneck lclavicle rclavicle
    lowerneck upperneck
    upperneck head
    lclavicle lhumerus
    lhumerus lradius
    lradius lwrist
    lwrist lhand lthumb
    lhand lfingers
    rclavicle rhumerus
    rhumerus rradius
    rradius rwrist
    rwrist rhand rthumb
    rhand rfingers
  end

#!OML:ASF E:\acrobat2\Project_11_07_03\Capture day 1\Session 1\Acrobat.ASF
:FULLY-SPECIFIED
:DEGREES
222
root 8.83336 18.2532 21.9181 6.69301 1.3357 0.456466
lowerback -8.98838 0.540941 -0.102332
upperback -3.48975 0.762689 -1.6023
thorax 1.44429 0.373739 -1.51917
lowerneck 1.70762 -2.25209 -0.588047
upperneck 3.84553 -3.12043 3.75661
head 0.972347 -1.53331 1.24579
rclavicle -5.49143e-015 5.56597e-015
rhumerus -40.4692 0.900449 -88.2714
rradius 25.7024
rwrist 6.05289
rhand -6.06742 -40.5046
rfingers 7.12502
rthumb 19.7675 -69.5194
lclavicle -5.49143e-015 5.56597e-015
lhumerus -34.7913 -20.6379 95.0831
lradius 20.4572
lwrist 13.2491
lhand -8.65085 -9.21517
lfingers 7.12502
lthumb 17.2825 20.0364
rfemur -1.11086 5.07904 21.4884
rtibia 3.9456
rfoot -17.0913 -15.6631
rtoes 6.27197
lfemur -2.78717 -2.84659 -20.501
ltibia 5.25864
lfoot -6.16148 -6.65177
ltoes 40.379
223
root 8.8337 18.2526 21.919 6.70015 1.35838 0.461826
lowerback -8.98081 0.538655 -0.100052
upperback -3.50136 0.759504 -1.61428
thorax 1.42822 0.372008 -1.53327
lowerneck 1.59211 -2.23385 -0.670048
upperneck 3.98605 -3.10483 3.85165
head 1.0389 -1.52289 1.28843
rclavicle -5.31749e-015 -1.74931e-014
rhumerus -40.4956 1.00683 -88.3445
rradius 25.7849
rwrist 5.84095
rhand -6.25421 -40.5524
rfingers 7.12502
rthumb 19.588 -69.5856
lclavicle -5.31749e-015 -1.74931e-014
lhumerus -34.8201 -20.9343 95.2083
lradius 20.4411
lwrist 13.3891
lhand -8.77774 -9.25914
lfingers 7.12502
lthumb 17.1604 20.0031
rfemur -1.10718 5.09557 21.4872
rtibia 3.93528
rfoot -17.1047 -15.6917
rtoes 6.33188
lfemur -2.79869 -2.86526 -20.5157
ltibia 5.2138
lfoot -6.24106 -6.47608
ltoes 39.3426
224
root 8.83404 18.2521 21.9198 6.70611 1.35864 0.421388
lowerback -8.96722 0.534537 -0.0362395
upperback -3.51813 0.7483 -1.61406
thorax 1.40387 0.365902 -1.57027
lowerneck 1.57661 -2.23025 -0.666967
upperneck 4.02359 -3.10088 3.83716
head 1.05281 -1.52043 1.28311
rclavicle 4.27387e-015 9.54166e-015
rhumerus -40.4856 1.10388 -88.3974
rradius 25.8133
rwrist 5.70992
rhand -6.34167 -40.7747
rfingers 7.12502
rthumb 19.5039 -69.8165
lclavicle 4.27387e-015 9.54166e-015
lhumerus -34.8256 -20.9487 95.2007
lradius 20.4362
lwrist 13.4408
lhand -8.74026 -9.21184
lfingers 7.12502
lthumb 17.1964 20.0472
rfemur -1.12018 5.12921 21.5408
rtibia 4.00122
rfoot -17.2873 -15.615
rtoes 6.73901
lfemur -2.82256 -2.82328 -20.4656
ltibia 5.174
lfoot -6.29125 -6.27528
ltoes 37.9237
225
root 8.83377 18.2524 21.9216 6.69053 1.33716 0.482544
lowerback -8.92766 0.529911 -0.099635
upperback -3.5314 0.747066 -1.62357
thorax 1.3677 0.365481 -1.54491
lowerneck 1.56197 -2.23375 -0.702388
upperneck 4.05866 -3.10745 3.85005
head 1.06737 -1.52353 1.293
rclavicle -8.64713e-015 -2.78299e-015
rhumerus -40.4633 1.10367 -88.3615
rradius 25.7992
rwrist 5.7607
rhand -6.41081 -40.8041
rfingers 7.12502
rthumb 19.4374 -69.8526
lclavicle -8.64713e-015 -2.78299e-015
lhumerus -34.8502 -20.8155 95.1603
lradius 20.4618
lwrist 13.3958
lhand -8.76538 -9.2304
lfingers 7.12502
lthumb 17.1723 20.0308
rfemur -1.08494 5.11272 21.4636
rtibia 3.98134
rfoot -17.2385 -15.5968
rtoes 6.66617
lfemur -2.79407 -2.8402 -20.5429
ltibia 5.23116
lfoot -6.19156 -6.47563
ltoes 39.7296
226
root 8.83282 18.2521 21.9239 6.69737 1.31451 0.536979
lowerback -8.88371 0.537006 -0.180909
upperback -3.57567 0.762264 -1.63108
thorax 1.29723 0.37326 -1.50598
lowerneck 1.5822 -2.25027 -0.750632
upperneck 4.09166 -3.13232 3.89479
head 1.07679 -1.53603 1.31544
rclavicle -1.86361e-015 -1.27222e-014
rhumerus -40.4944 1.09274 -88.304
rradius 25.8009
rwrist 5.83179
rhand -6.27671 -40.7619
rfingers 7.12502
rthumb 19.5663 -69.7973
lclavicle -1.86361e-015 -1.27222e-014
lhumerus -34.8679 -20.6763 95.125
lradius 20.4415
lwrist 13.1846
lhand -8.8177 -9.21253
lfingers 7.12502
lthumb 17.1219 20.053
rfemur -1.06055 5.16574 21.3968
rtibia 3.88397
rfoot -17.1227 -15.6492
rtoes 6.43182
lfemur -2.77104 -2.91673 -20.6096
ltibia 5.25558
lfoot -6.14664 -6.65007
ltoes 41.2038
227
root 8.83231 18.2513 21.9255 6.69346 1.3102 0.435361
lowerback -8.89529 0.54982 -0.0866077
upperback -3.57297 0.77129 -1.61349
thorax 1.3076 0.37725 -1.53987
lowerneck 1.61238 -2.25987 -0.711359
upperneck 4.04586 -3.14293 3.88533
head 1.05665 -1.54172 1.30603
rclavicle 1.49089e-016 6.36111e-015
rhumerus -40.4415 1.15598 -88.331
rradius 25.755
rwrist 5.89488
rhand -5.81221 -40.8121
rfingers 7.12502
rthumb 20.0129 -69.8015
lclavicle 1.49089e-016 6.36111e-015
lhumerus -34.8585 -20.6524 95.0564
lradius 20.5087
lwrist 13.0718
lhand -8.74144 -9.0452
lfingers 7.12502
lthumb 17.1953 20.214
rfemur -1.03267 5.33518 21.5317
rtibia 3.84756
rfoot -17.2657 -15.6545
rtoes 7.10016
lfemur -2.75015 -2.94762 -20.477
ltibia 5.22929
lfoot -6.17724 -6.64539
ltoes 41.3092
228
root 8.8312 18.2512 21.9246 6.67693 1.31524 0.355219
lowerback -8.926 0.551537 -0.0135827
upperback -3.51909 0.768308 -1.60218
thorax 1.38089 0.37573 -1.56906
lowerneck 1.56397 -2.26352 -0.543313
upperneck 3.99998 -3.14166 3.76764
head 1.04474 -1.53989 1.23965
rclavicle -5.71506e-015 1.66979e-014
rhumerus -40.3009 1.17166 -88.3675
rradius 25.6975
rwrist 5.94126
rhand -5.68235 -40.7911
rfingers 7.12502
rthumb 20.1377 -69.7674
lclavicle -5.71506e-015 1.66979e-014
lhumerus -34.8086 -20.8341 95.0506
lradius 20.617
lwrist 13.2803
lhand -8.61987 -8.7816
lfingers 7.12502
lthumb 17.3123 20.4673
rfemur -1.02688 5.47767 21.6492
rtibia 3.90994
rfoot -17.4259 -15.7462
rtoes 7.72051
lfemur -2.73943 -2.95844 -20.3619
ltibia 5.20117
lfoot -6.19476 -6.60456
ltoes 41.1053
229
root 8.83132 18.2522 21.9256 6.71342 1.27405 0.516789
lowerback -8.96992 0.551424 -0.179556
upperback -3.51659 0.783482 -1.64993
thorax 1.40654 0.384147 -1.52313
lowerneck 1.56263 -2.27469 -0.419999
upperneck 3.96819 -3.15196 3.67938
head 1.03106 -1.54454 1.19077
rclavicle 2.23633e-016 -1.51076e-014
rhumerus -40.2709 1.2373 -88.3876
rradius 25.7232
rwrist 5.83568
rhand -5.90497 -40.6865
rfingers 7.12502
rthumb 19.9237 -69.6852
lclavicle 2.23633e-016 -1.51076e-014
lhumerus -34.7618 -20.8918 95.0802
lradius 20.599
lwrist 13.4036
lhand -8.62065 -8.73941
lfingers 7.12502
lthumb 17.3116 20.5096
rfemur -1.09787 5.41603 21.4344
rtibia 3.991
rfoot -17.4329 -15.7026
rtoes 7.38426
lfemur -2.76959 -2.9459 -20.5691
ltibia 5.12172
lfoot -6.36186 -6.34007
ltoes 38.9387
230
root 8.83292 18.2534 21.929 6.75274 1.25247 0.662584
lowerback -8.98631 0.535494 -0.321805
upperback -3.56569 0.774421 -1.68632
thorax 1.36321 0.380096 -1.48173
lowerneck 1.6027 -2.25624 -0.459688
upperneck 3.99626 -3.13 3.73541
head 1.0345 -1.53365 1.21567
rclavicle 3.926e-015 -8.34896e-015
rhumerus -40.3563 1.43639 -88.4551
rradius 25.7788
rwrist 5.71011
rhand -6.01734 -40.5676
rfingers 7.12502
rthumb 19.8157 -69.5775
lclavicle 3.926e-015 -8.34896e-015
lhumerus -34.9138 -20.9247 95.1596
lradius 20.7058
lwrist 13.4833
lhand -8.71562 -8.79542
lfingers 7.12502
lthumb 17.2202 20.4616
rfemur -1.12319 5.33006 21.2371
rtibia 3.99092
rfoot -17.4809 -15.5658
rtoes 7.33714
lfemur -2.79792 -2.87017 -20.7618
ltibia 5.07724
lfoot -6.39949 -6.1954
ltoes 36.297
231
root 8.83365 18.2541 21.9306 6.73809 1.29741 0.651199
lowerback -8.95604 0.516522 -0.322619
upperback -3.58146 0.748458 -1.67521
thorax 1.32949 0.367118 -1.47269
lowerneck 1.58436 -2.23946 -0.488147
upperneck 4.04524 -3.11093 3.78001
head 1.05394 -1.5233 1.23441
rclavicle -7.25564e-015 -1.51076e-014
rhumerus -40.3672 1.55303 -88.485
rradius 25.7637
rwrist 5.69784
rhand -5.93629 -40.5378
rfingers 7.12502
rthumb 19.8936 -69.5396
lclavicle -7.25564e-015 -1.51076e-014
lhumerus -35.0339 -21.0024 95.2141
lradius 20.8551
lwrist 13.5811
lhand -8.69939 -8.72963
lfingers 7.12502
lthumb 17.2358 20.526
rfemur -1.07115 5.25792 21.2677
rtibia 3.94963
rfoot -17.4079 -15.6188
rtoes 7.11848
lfemur -2.78033 -2.81899 -20.7408
ltibia 5.08366
lfoot -6.27269 -6.29549
ltoes 35.4276
